<svg xmlns="http://www.w3.org/2000/svg" width="48" height="48" viewBox="0 0 48 48" role="img" aria-label="Logo">
  <g fill-rule="evenodd">
    <path d="M24 24 C18.5 14 18.5 6 24 3 C29.5 6 29.5 14 24 24 Z" fill="#007AFF" opacity="0.85" transform="rotate(0 24 24)"/>
    <path d="M24 24 C18.5 14 18.5 6 24 3 C29.5 6 29.5 14 24 24 Z" fill="#00C853" opacity="0.85" transform="rotate(72 24 24)"/>
    <path d="M24 24 C18.5 14 18.5 6 24 3 C29.5 6 29.5 14 24 24 Z" fill="#FFC400" opacity="0.85" transform="rotate(144 24 24)"/>
    <path d="M24 24 C18.5 14 18.5 6 24 3 C29.5 6 29.5 14 24 24 Z" fill="#FF6D00" opacity="0.85" transform="rotate(216 24 24)"/>
    <path d="M24 24 C18.5 14 18.5 6 24 3 C29.5 6 29.5 14 24 24 Z" fill="#D500F9" opacity="0.85" transform="rotate(288 24 24)"/>
  </g>
  <circle cx="24" cy="24" r="4.5" fill="#fff"/>
</svg>
